HIERARCHY
ROOT Hips
{
	OFFSET 0.00000 0.00000 0.00000
	CHANNELS 6 Xposition Yposition Zposition Zrotation Yrotation Xrotation 
	JOINT LHipJoint
	{
		OFFSET 0 0 0
		CHANNELS 3 Zrotation Yrotation Xrotation
		JOINT LeftUpLeg
		{
			OFFSET 1.81638 -1.86202 0.89635
			CHANNELS 3 Zrotation Yrotation Xrotation
			JOINT LeftLeg
			{
				OFFSET 2.63464 -7.23861 0.00000
				CHANNELS 3 Zrotation Yrotation Xrotation
				JOINT LeftFoot
				{
					OFFSET 2.45871 -6.75336 0.00000
					CHANNELS 3 Zrotation Yrotation Xrotation
					JOINT LeftToeBase
					{
						OFFSET 0.34235 -0.94059 2.20020
						CHANNELS 3 Zrotation Yrotation Xrotation
						End Site
						{
							OFFSET 0.00000 -0.00000 1.18611
						}
					}
				}
			}
		}
	}
	JOINT RHipJoint
	{
		OFFSET 0 0 0
		CHANNELS 3 Zrotation Yrotation Xrotation
		JOINT RightUpLeg
		{
			OFFSET -1.84405 -1.86203 0.89635
			CHANNELS 3 Zrotation Yrotation Xrotation
			JOINT RightLeg
			{
				OFFSET -2.71067 -7.44751 0.00000
				CHANNELS 3 Zrotation Yrotation Xrotation
				JOINT RightFoot
				{
					OFFSET -2.47159 -6.79060 0.00000
					CHANNELS 3 Zrotation Yrotation Xrotation
					JOINT RightToeBase
					{
						OFFSET -0.26223 -0.72048 2.36007
						CHANNELS 3 Zrotation Yrotation Xrotation
						End Site
						{
							OFFSET -0.00000 -0.00000 1.23343
						}
					}
				}
			}
		}
	}
	JOINT LowerBack
	{
		OFFSET 0 0 0
		CHANNELS 3 Zrotation Yrotation Xrotation
		JOINT Spine
		{
			OFFSET 0.02089 1.99248 -0.22512
			CHANNELS 3 Zrotation Yrotation Xrotation
			JOINT Spine1
			{
				OFFSET 0.01476 2.01356 -0.03079
				CHANNELS 3 Zrotation Yrotation Xrotation
				JOINT Neck
				{
					OFFSET 0 0 0
					CHANNELS 3 Zrotation Yrotation Xrotation
					JOINT Neck1
					{
						OFFSET 0.04846 1.65098 0.06663
						CHANNELS 3 Zrotation Yrotation Xrotation
						JOINT Head
						{
							OFFSET -0.06061 1.60634 -0.07565
							CHANNELS 3 Zrotation Yrotation Xrotation
							End Site
							{
								OFFSET -0.02954 1.73562 -0.03642
							}
						}
					}
				}
				JOINT LeftShoulder
				{
					OFFSET 0 0 0
					CHANNELS 3 Zrotation Yrotation Xrotation
					JOINT LeftArm
					{
						OFFSET 3.45234 1.47051 -0.06993
						CHANNELS 3 Zrotation Yrotation Xrotation
						JOINT LeftForeArm
						{
							OFFSET 5.49313 -0.00000 0.00000
							CHANNELS 3 Zrotation Yrotation Xrotation
							JOINT LeftHand
							{
								OFFSET 3.29037 -0.00000 0.00000
								CHANNELS 3 Zrotation Yrotation Xrotation
								JOINT LeftFingerBase
								{
									OFFSET 0 0 0
									CHANNELS 3 Zrotation Yrotation Xrotation
									JOINT LeftHandIndex1
									{
										OFFSET 0.72966 -0.00000 0.00000
										CHANNELS 3 Zrotation Yrotation Xrotation
										End Site
										{
											OFFSET 0.58827 -0.00000 0.00000
										}
									}
								}
								JOINT LThumb
								{
									OFFSET 0 0 0
									CHANNELS 3 Zrotation Yrotation Xrotation
									End Site
									{
										OFFSET 0.59725 -0.00000 0.59725
									}
								}
							}
						}
					}
				}
				JOINT RightShoulder
				{
					OFFSET 0 0 0
					CHANNELS 3 Zrotation Yrotation Xrotation
					JOINT RightArm
					{
						OFFSET -3.41935 1.44327 0.20453
						CHANNELS 3 Zrotation Yrotation Xrotation
						JOINT RightForeArm
						{
							OFFSET -5.23684 -0.00000 0.00000
							CHANNELS 3 Zrotation Yrotation Xrotation
							JOINT RightHand
							{
								OFFSET -3.38251 -0.00000 0.00000
								CHANNELS 3 Zrotation Yrotation Xrotation
								JOINT RightFingerBase
								{
									OFFSET 0 0 0
									CHANNELS 3 Zrotation Yrotation Xrotation
									JOINT RightHandIndex1
									{
										OFFSET -0.69145 -0.00000 0.00000
										CHANNELS 3 Zrotation Yrotation Xrotation
										End Site
										{
											OFFSET -0.55747 -0.00000 0.00000
										}
									}
								}
								JOINT RThumb
								{
									OFFSET 0 0 0
									CHANNELS 3 Zrotation Yrotation Xrotation
									End Site
									{
										OFFSET -0.56598 -0.00000 0.56598
									}
								}
							}
						}
					}
				}
			}
		}
	}
}
MOTION
Frames: 11
Frame Time: 0.105263
0.00 0.00 0.00 0 0 0 0 0 0 -21 0 0 0 0 0 0 0 0 0 0 0 0 0 0 21 0 0 0 0 0 0 0 0 0 0 0 0 0 0 0 0 0 0 0 0 0 0 -16 0 0 21 0 0 11 0 0 0 -8 0 0 0 0 0 0 0 0 0 0 0 0 0 0 0 0 0 0 0 0 8 0 0 0 0 0 0 0 0 0 0 0 0 0 0 0 0 0
0.00 0.00 0.00 -50.5077 83.9563 -41.5773 0.0000 0.0000 0.0000 -12.3328 -10.6595 -22.6076 5.4731 13.8976 42.8287 1.8150 -22.1817 -26.8955 0.0477 1.4093 3.8757 0.0000 0.0000 0.0000 22.5712 6.8303 -1.9541 -3.4971 -11.4592 33.8448 -1.4875 7.7197 -21.8223 -2.0789 9.0286 -25.8847 -4.3910 1.5256 15.2946 -1.3930 1.5757 5.3289 0.7352 0.8779 -2.9826 2.3695 -2.1142 -2.6170 5.6093 -2.5461 -5.1608 1.3458 -1.3286 -1.1120 0.0000 0.0000 0.0000 -78.5155 18.0946 24.7024 35.4066 -45.1003 -15.1007 -0.0000 0.0000 -2.9020 0.7828 9.9923 0.1358 -7.1250 0.0000 -0.0000 -22.4656 38.9505 3.5622 0.0000 0.0000 0.0000 77.6834 -18.0560 42.5780 -25.4091 36.6192 -8.5327 0.0000 0.0000 0.5186 -11.2989 -14.9086 2.9427 7.1250 -0.0000 -0.0000 15.0052 -44.6318 0.1396
0.00 0.00 0.00 -36.6502 83.8651 -28.0703 0.0000 0.0000 0.0000 -14.7245 -9.2675 -19.4334 5.0791 13.4723 41.1633 1.8622 -22.1274 -27.1277 0.0972 2.0110 5.5361 0.0000 0.0000 0.0000 18.9190 8.4170 -8.6021 -6.8241 -15.1819 48.2057 -0.3423 13.8562 -13.4102 -1.3285 7.2990 -20.6043 -5.9308 1.5172 15.8841 -1.9301 1.3131 5.5348 1.0717 0.7554 -3.0732 2.5254 -1.9959 -3.0647 6.1483 -2.4474 -4.2426 1.4716 -1.2526 -0.7488 -0.0000 0.0000 0.0000 -77.4836 15.6523 24.1730 36.4188 -45.7991 -15.8220 -0.0000 0.0000 -2.8845 1.9211 9.6681 0.3227 -7.1250 0.0000 -0.0000 -21.4373 38.7409 3.4971 -0.0000 0.0000 0.0000 77.7795 -17.6821 42.4313 -27.2270 38.3948 -9.6398 0.0000 -0.0000 -3.6678 -11.8586 -15.2228 3.1558 7.1250 -0.0000 -0.0000 14.6010 -45.0048 -0.0018
0.00 0.00 0.00 -23.8896 85.0375 -15.3037 0.0000 0.0000 0.0000 -18.2743 -4.3261 -5.8196 2.3042 9.4728 27.2857 0.4115 -23.0231 -19.0468 0.0121 0.7116 1.9556 0.0000 0.0000 0.0000 13.9598 14.1655 -22.2920 -7.3574 -15.6256 50.2134 -0.0164 23.2569 -16.5153 -0.9160 6.0983 -17.0698 -6.7978 0.2043 16.4279 -0.4025 -0.6044 4.8292 3.5338 -0.1826 -3.9551 2.8314 -2.6067 -7.3572 6.0972 -4.1168 4.9724 1.2917 -1.7318 2.9698 -0.0000 -0.0000 0.0000 -75.9194 9.5791 24.1901 43.1684 -49.8389 -20.8293 -0.0000 0.0000 -6.2507 8.4096 10.4866 1.5413 -7.1250 0.0000 -0.0000 -16.2636 40.0416 2.0505 -0.0000 -0.0000 0.0000 78.6079 -19.6342 39.8693 -25.0136 36.2179 -8.2979 0.0000 -0.0000 -0.9511 -8.1565 -15.5785 2.2043 7.1250 -0.0000 -0.0000 18.0213 -44.9168 0.0383
0.00 0.00 0.00 -29.5831 88.5367 -20.6795 0.0000 0.0000 0.0000 -17.5229 -1.4491 -1.9439 2.9664 10.6404 31.0765 -2.0847 -26.6884 -1.1860 0.0220 -0.9567 -2.6296 0.0000 0.0000 0.0000 15.9421 22.5093 -19.6537 -3.1866 -10.9912 32.2502 -0.7003 13.8146 -16.6197 -0.0124 0.7176 -1.9721 -3.6693 -1.4158 14.9265 2.5940 -2.0758 4.2339 5.1795 -0.9381 -3.6314 6.3891 -1.5373 -7.6149 -6.6625 -2.1565 7.8717 -3.1804 -1.1881 3.4378 -0.0000 0.0000 0.0000 -77.4684 14.3256 26.5852 46.0139 -51.2556 -23.0269 -0.0000 0.0000 -9.7391 8.2601 9.0079 1.3021 -7.1250 0.0000 -0.0000 -16.0177 38.5971 2.6056 -0.0000 0.0000 0.0000 77.5527 -21.5352 35.9884 -24.2958 35.4755 -7.8776 0.0000 -0.0000 -1.4369 -4.2414 -16.4488 1.2030 7.1250 -0.0000 -0.0000 21.7995 -45.2755 -0.1558
0.00 0.00 0.00 -117.1540 88.8535 -110.2250 0.0000 0.0000 0.0000 -14.1383 -1.1634 -7.6286 6.3389 14.7489 46.3270 -2.5818 -27.3259 15.1544 0.1277 -2.3032 -6.3443 0.0000 0.0000 0.0000 19.0970 23.8831 -14.9175 -3.9908 -12.1482 36.2582 -1.1778 11.2664 -19.7807 -0.0336 -1.1839 3.2550 -1.4852 -1.5452 16.1172 3.4393 -1.8152 4.7252 4.8212 -0.7889 -3.8286 7.8317 -1.2749 -6.6259 -10.6602 -1.5660 7.1640 -4.6069 -0.9976 3.0488 -0.0000 0.0000 0.0000 -79.1963 16.0688 26.1230 42.9267 -49.7114 -20.6448 -0.0000 0.0000 -9.1725 8.1124 9.5853 1.3597 -7.1250 0.0000 -0.0000 -16.2835 39.1453 2.4246 -0.0000 0.0000 0.0000 77.8777 -21.5261 34.3297 -24.1710 35.3446 -7.8053 0.0000 -0.0000 -1.2295 -4.0371 -16.3543 1.1385 7.1250 -0.0000 -0.0000 21.9414 -45.1635 -0.0931
0.00 0.00 0.00 -115.4090 85.5133 -109.9780 0.0000 0.0000 0.0000 -7.9715 -3.3010 -15.2465 11.3046 18.0810 63.7669 -2.3934 -26.2316 12.8338 0.3292 -3.6878 -10.2000 0.0000 0.0000 0.0000 24.8980 22.4583 -11.0693 -4.5166 -12.8178 38.6901 -1.7210 11.2151 -23.6561 -0.0382 -1.2610 3.4673 3.1786 -1.3630 16.9365 4.6492 -0.6342 5.3701 3.2381 -0.1635 -3.7378 9.3347 -1.4644 -4.8246 -12.6102 -1.8823 4.6342 -5.4158 -1.1111 1.9348 -0.0000 0.0000 0.0000 -81.1007 18.5781 26.4419 39.2300 -47.6071 -17.8685 -0.0000 0.0000 -7.5303 10.0933 10.5063 1.8591 -7.1250 0.0000 -0.0000 -14.8383 40.2017 1.8008 -0.0000 0.0000 0.0000 78.7051 -20.6768 31.3765 -23.4859 34.6158 -7.4125 0.0000 -0.0000 -0.3241 -4.7631 -16.2980 1.3395 7.1250 -0.0000 -0.0000 21.2823 -45.1973 -0.1087
0.00 0.00 0.00 -106.0670 85.4793 -100.3240 0.0000 0.0000 0.0000 -5.4254 -4.8274 -28.1806 14.5250 19.2656 73.8016 -1.4967 -24.5277 -4.4185 0.4345 -4.2298 -11.7241 0.0000 0.0000 0.0000 27.1290 20.5844 -6.4184 -4.3344 -12.5925 37.8617 -2.2086 11.8010 -26.7960 -0.0203 -0.9208 2.5310 3.7796 0.3881 17.5337 4.9222 1.8308 5.4221 2.6908 1.0556 -4.0664 10.0285 -1.7386 -2.8268 -12.6915 -2.3853 1.6238 -5.5049 -1.2671 0.6602 -0.0000 -0.0000 0.0000 -82.4516 23.0660 29.5667 31.3756 -42.0437 -12.3206 -0.0000 0.0000 -1.5646 6.8018 9.4517 1.1221 -7.1250 0.0000 -0.0000 -17.3454 38.9154 2.6960 -0.0000 -0.0000 0.0000 79.1975 -18.7425 27.2021 -22.4374 33.4678 -6.8255 0.0000 0.0000 2.7569 -12.9402 -17.8422 4.0270 7.1250 -0.0000 -0.0000 14.4771 -47.7170 -0.9901
0.00 0.00 0.00 -115.6440 85.3315 -107.3560 0.0000 0.0000 0.0000 -5.2428 -13.5742 -36.3982 7.7404 15.9250 51.6222 0.3328 -19.8816 -16.6227 0.5611 -4.7979 -13.3330 0.0000 0.0000 0.0000 27.5134 14.3890 3.6190 -1.5511 -7.8608 22.2920 -1.3332 11.2640 -20.9473 -0.0016 0.2602 -0.7148 3.6805 1.2970 17.4881 3.2332 2.8436 4.7744 0.7336 1.5043 -4.6689 7.7089 -2.1828 -2.6879 -8.0637 -3.0820 -0.0920 -4.0415 -1.5826 0.1798 -0.0000 -0.0000 0.0000 -80.7310 30.1749 30.7331 29.1115 -40.1196 -10.8325 -0.0000 -0.0000 4.7092 -5.0652 4.9112 -0.4348 -7.1250 0.0000 -0.0000 -25.5460 33.8900 7.6200 -0.0000 -0.0000 0.0000 79.5887 -18.6930 29.1653 -25.6634 36.8744 -8.6849 0.0000 -0.0000 -2.6456 -16.8849 -17.3199 5.1635 7.1250 -0.0000 -0.0000 10.6322 -47.7425 -0.7272
0.00 0.00 0.00 -102.3550 84.8236 -92.8395 0.0000 0.0000 0.0000 -3.4900 -17.6838 -35.0064 3.7779 11.8588 35.2344 0.5629 -14.5772 -15.7526 0.3871 -3.9953 -11.0634 0.0000 0.0000 0.0000 27.5912 9.5001 10.9025 -0.4049 -4.0851 11.3161 -0.2260 11.6206 -11.0673 -0.0387 1.2703 -3.4929 2.7920 1.7780 17.0379 1.1645 3.1210 4.4968 -0.9979 1.6164 -4.6472 5.7945 -2.3326 -3.5089 -2.1618 -3.3183 0.0512 -1.6997 -1.6723 0.4721 -0.0000 -0.0000 0.0000 -77.9225 33.6440 30.2112 31.3934 -42.0582 -12.3325 -0.0000 0.0000 -1.3788 -4.4109 6.4124 -0.4936 -7.1250 0.0000 -0.0000 -25.4867 35.2930 6.6331 -0.0000 -0.0000 0.0000 79.7093 -19.2180 33.1064 -28.2834 39.3759 -10.3030 0.0000 -0.0000 -7.0682 -10.2512 -15.2032 2.7153 7.1250 -0.0000 -0.0000 16.0329 -44.7983 0.0820
0.00 0.00 0.00 -26.4179 84.0170 -20.9732 0.0000 0.0000 0.0000 -11.6718 -9.2743 -23.5126 5.5503 13.9779 43.1491 1.1663 -19.1262 -21.9916 0.0023 -0.3126 -0.8590 0.0000 0.0000 0.0000 18.6624 13.0509 -8.3207 -11.1660 -18.0154 63.3195 0.7214 22.3693 -9.7549 -1.1825 6.9015 -19.4237 -5.6737 0.5938 19.9812 -3.3621 -0.1606 5.6420 -0.3538 0.1182 -5.0302 3.8549 -0.5274 -3.1524 4.4869 -0.7176 -1.8162 0.7265 -0.3379 -0.0356 0.0000 -0.0000 0.0000 -68.2666 15.3904 32.6864 25.1317 -36.3383 -8.3678 -0.0000 -0.0000 10.4434 -1.5967 3.2377 -0.0902 -7.1250 0.0000 -0.0000 -22.4807 32.5531 7.3522 0.0000 -0.0000 0.0000 80.6101 -17.6198 36.6096 -28.3829 39.4663 -10.3662 0.0000 -0.0000 -5.3321 -18.1002 -15.2768 4.9222 7.1250 -0.0000 -0.0000 8.9407 -45.8184 -0.1820
